# xmcd CD database file
# Copyright (C) 1993-1998 Ti Kan
#
# Track frame offsets:
#	150
#	14505
#	27462
#	42350
#	53130
#	65725
#	80977
#	95945
#	110175
#	126752
#
# Disc length: 1939 seconds
#
# Revision: 1
# Processed by: cddbd v1.4b41PL1 Copyright (c) Steve Scherf et al.
# Submitted via: CDValet v3.31 - Copyright (c) 1997 Greg Leichner
#
DISCID=9907910a
DTITLE=Jack Greene - Jack Greene Sings His Best
DYEAR=1900
DGENRE=
TTITLE0=There Goes Me Everything
TTITLE1=Statue Of A Fool
TTITLE2=Goin' Through Hell For An Angel
TTITLE3=Midnight Tennessee Woman
TTITLE4=All The Time
TTITLE5=You Are My Treasure
TTITLE6=Don't You Ever Get Tired (Of Hurting Me)
TTITLE7=I'd Do As Much For You
TTITLE8=I'd Be Home On Christmas Day
TTITLE9=The Last Letter
EXTD=
EXTT0=
EXTT1=
EXTT2=
EXTT3=
EXTT4=
EXTT5=
EXTT6=
EXTT7=
EXTT8=
EXTT9=
PLAYORDER=
